<svg width="24" height="24" viewBox="0 0 24 24" fill="none" xmlns="http://www.w3.org/2000/svg">
<g id="mingcute:shield-line" clip-path="url(#clip0_2920_690)">
<g id="Group">
<path id="Vector" d="M12.702 2.19463L19.702 4.81963C20.0833 4.96256 20.4119 5.21849 20.6438 5.55319C20.8758 5.88789 21.0001 6.28542 21 6.69263V12.0556C21 13.7271 20.5346 15.3655 19.6559 16.7873C18.7772 18.2091 17.52 19.3581 16.025 20.1056L12.671 21.7826C12.4627 21.8868 12.2329 21.9411 12 21.9411C11.7671 21.9411 11.5373 21.8868 11.329 21.7826L7.975 20.1056C6.48004 19.3581 5.22277 18.2091 4.34407 16.7873C3.46537 15.3655 2.99996 13.7271 3 12.0556V6.69263C2.99995 6.28542 3.1242 5.88789 3.35615 5.55319C3.5881 5.21849 3.91669 4.96256 4.298 4.81963L11.298 2.19463C11.7506 2.02497 12.2494 2.02497 12.702 2.19463ZM12 4.06763L5 6.69263V12.0556C5.00023 13.3555 5.36239 14.6296 6.04592 15.7353C6.72944 16.8409 7.70732 17.7344 8.87 18.3156L12 19.8826L15.13 18.3176C16.293 17.7363 17.2711 16.8425 17.9546 15.7364C18.6382 14.6304 19.0001 13.3558 19 12.0556V6.69263L12 4.06763ZM12 7.99963C12.2652 7.99963 12.5196 8.10499 12.7071 8.29253C12.8946 8.48006 13 8.73442 13 8.99963V10.9996H15C15.2652 10.9996 15.5196 11.105 15.7071 11.2925C15.8946 11.4801 16 11.7344 16 11.9996C16 12.2648 15.8946 12.5192 15.7071 12.7067C15.5196 12.8943 15.2652 12.9996 15 12.9996H13V14.9996C13 15.2648 12.8946 15.5192 12.7071 15.7067C12.5196 15.8943 12.2652 15.9996 12 15.9996C11.7348 15.9996 11.4804 15.8943 11.2929 15.7067C11.1054 15.5192 11 15.2648 11 14.9996V12.9996H9C8.73478 12.9996 8.48043 12.8943 8.29289 12.7067C8.10536 12.5192 8 12.2648 8 11.9996C8 11.7344 8.10536 11.4801 8.29289 11.2925C8.48043 11.105 8.73478 10.9996 9 10.9996H11V8.99963C11 8.73442 11.1054 8.48006 11.2929 8.29253C11.4804 8.10499 11.7348 7.99963 12 7.99963Z" fill="#0C4DB8"/>
</g>
</g>
<defs>
<clipPath id="clip0_2920_690">
<rect width="24" height="24" fill="white"/>
</clipPath>
</defs>
</svg>
