<svg width="24" height="24" viewBox="0 0 24 24" fill="none" xmlns="http://www.w3.org/2000/svg">
<g id="streamline:customer-support-1" clip-path="url(#clip0_2920_714)">
<path id="Vector" d="M5.14314 12.0004V7.49181C5.15653 6.60558 5.34465 5.7307 5.69674 4.9173C6.04883 4.1039 6.55796 3.36797 7.19496 2.75168C7.83196 2.13538 8.5843 1.65084 9.40889 1.3258C10.2335 1.00077 11.1141 0.84164 12.0003 0.857528C12.8865 0.84164 13.7671 1.00077 14.5917 1.3258C15.4163 1.65084 16.1686 2.13538 16.8056 2.75168C17.4426 3.36797 17.9517 4.1039 18.3038 4.9173C18.6559 5.7307 18.844 6.60558 18.8574 7.49181V12.0004M15.4288 21.0004C16.3382 21.0004 17.2102 20.6392 17.8532 19.9962C18.4962 19.3532 18.8574 18.4811 18.8574 17.5718V13.7147M15.4288 21.0004C15.4288 21.5687 15.2031 22.1138 14.8012 22.5156C14.3994 22.9175 13.8543 23.1432 13.286 23.1432H10.7146C10.1462 23.1432 9.6012 22.9175 9.19934 22.5156C8.79747 22.1138 8.57171 21.5687 8.57171 21.0004C8.57171 20.4321 8.79747 19.887 9.19934 19.4852C9.6012 19.0833 10.1462 18.8575 10.7146 18.8575H13.286C13.8543 18.8575 14.3994 19.0833 14.8012 19.4852C15.2031 19.887 15.4288 20.4321 15.4288 21.0004ZM2.57171 9.42896H4.28599C4.51332 9.42896 4.73134 9.51926 4.89208 9.68001C5.05283 9.84075 5.14314 10.0588 5.14314 10.2861V15.429C5.14314 15.6563 5.05283 15.8743 4.89208 16.035C4.73134 16.1958 4.51332 16.2861 4.28599 16.2861H2.57171C2.11705 16.2861 1.68102 16.1055 1.35952 15.784C1.03803 15.4625 0.857422 15.0265 0.857422 14.5718V11.1432C0.857422 10.6886 1.03803 10.2526 1.35952 9.93106C1.68102 9.60957 2.11705 9.42896 2.57171 9.42896ZM21.4288 16.2861H19.7146C19.4872 16.2861 19.2692 16.1958 19.1085 16.035C18.9477 15.8743 18.8574 15.6563 18.8574 15.429V10.2861C18.8574 10.0588 18.9477 9.84075 19.1085 9.68001C19.2692 9.51926 19.4872 9.42896 19.7146 9.42896H21.4288C21.8835 9.42896 22.3195 9.60957 22.641 9.93106C22.9625 10.2526 23.1431 10.6886 23.1431 11.1432V14.5718C23.1431 15.0265 22.9625 15.4625 22.641 15.784C22.3195 16.1055 21.8835 16.2861 21.4288 16.2861Z" stroke="#0C4DB8" stroke-linecap="round" stroke-linejoin="round"/>
</g>
<defs>
<clipPath id="clip0_2920_714">
<rect width="24" height="24" fill="white"/>
</clipPath>
</defs>
</svg>
